<?xml version="1.0" encoding="UTF-8"?>
<svg xmlns="http://www.w3.org/2000/svg"
     width="500" height="700" viewBox="0 0 500 700"
     role="img" aria-label="Weihnachts-Grußkarte">
  <defs>
    <!-- Farbpalette -->
    <color id="Tannengruen">#0B3D2E</color>
    <color id="Gold">#D4AF37</color>
    <color id="Creme">#FFF8F0</color>
    <color id="LightGray">#EDEDED</color>

    <!-- Hintergrundverlauf -->
    <linearGradient id="bgGradient" x1="0" y1="0" x2="0" y2="1">
      <stop offset="0" stop-color="#FFF8F0"/>
      <stop offset="1" stop-color="#EDEDED"/>
    </linearGradient>

    <!-- sanfte Vignette -->
    <radialGradient id="vignette" cx="50%" cy="30%" r="60%">
      <stop offset="0" stop-color="#FFF8F0" stop-opacity="0.12"/>
      <stop offset="1" stop-color="#FFF8F0" stop-opacity="0"/>
    </radialGradient>

    <!-- feiner Drop-Shadow als Filter (Vektor) -->
    <filter id="softShadow" x="-50%" y="-50%" width="200%" height="200%">
      <feOffset in="SourceAlpha" dx="4" dy="6" result="off"/>
      <feGaussianBlur in="off" stdDeviation="6" result="blur"/>
      <feColorMatrix in="blur" type="matrix"
                     values="0 0 0 0 0
                             0 0 0 0 0
                             0 0 0 0 0
                             0 0 0 0.08" result="shadow"/>
      <feBlend in="shadow" in2="SourceGraphic" mode="normal"/>
    </filter>

    <!-- kleine Stern-Form -->
    <symbol id="star" viewBox="0 0 20 20">
      <path d="M10 0 L12.9 6.9 L20 7.6 L14.5 12.1 L16 19 L10 15.5 L4 19 L5.5 12.1 L0 7.6 L7.1 6.9 Z" />
    </symbol>

    <!-- Schneeflocke (stilisiert) -->
    <symbol id="snow" viewBox="0 0 24 24">
      <path d="M0 6 H24 M12 0 V24 M4 4 L20 20 M20 4 L4 20" fill="none" stroke="#EDEDED" stroke-linecap="round" stroke-width="1.2"/>
    </symbol>

    <!-- Schriftfamilien (Fallbacks) -->
    <style type="text/css"><![CDATA[
      .script { font-family: "Segoe Script", "Brush Script MT", Cursive; }
      .sans { font-family: "Segoe UI", Arial, Sans-Serif; }
    ]]></style>
  </defs>

  <!-- Background Layer -->
  <g id="Background">
    <rect x="0" y="0" width="500" height="700" fill="url(#bgGradient)"/>
    <ellipse cx="250" cy="350" rx="210" ry="280" fill="url(#vignette)" />
  </g>

  <!-- Decorations Layer -->
  <g id="Decorations" filter="">
    <!-- goldene Sterne -->
    <use href="#star" x="380" y="40" width="18" height="18" fill="#D4AF37" opacity="0.95"/>
    <use href="#star" x="120" y="60" width="12" height="12" fill="#D4AF37" opacity="0.9"/>

    <!-- Schneeflocken -->
    <use href="#snow" x="60" y="120" width="24" height="24" opacity="0.9"/>
    <use href="#snow" x="360" y="140" width="18" height="18" opacity="0.85"/>

    <!-- Baum-Schatten (leichter Vektor-Shadow) -->
    <g id="TreeShadow" transform="translate(4,6)" opacity="0.08">
      <path d="M250 220 L200 320 L300 320 Z M250 260 L210 340 L290 340 Z M250 300 L220 360 L280 360 Z" fill="#000"/>
    </g>

    <!-- Tannenbaum (zentral) -->
    <g id="Tree" transform="translate(0,0)">
      <path d="M250 200 L200 300 L300 300 Z M250 240 L210 320 L290 320 Z M250 280 L220 360 L280 360 Z"
            fill="#0B3D2E" stroke="#0B3D2E" stroke-width="0.5"/>
      <!-- Ornamente -->
      <circle cx="250" cy="245" r="5" fill="#FFF8F0"/>
      <circle cx="215" cy="295" r="4" fill="#FFF8F0"/>
      <circle cx="275" cy="295" r="4.5" fill="#FFF8F0"/>
      <circle cx="235" cy="325" r="3.5" fill="#FFF8F0"/>
      <!-- goldener Stern -->
      <path d="M250 190 L256 204 L272 206 L260 216 L264 232 L250 222 L236 232 L240 216 L228 206 L244 204 Z"
            fill="#D4AF37" stroke="#D4AF37" stroke-width="0.3"/>
    </g>

    <!-- stilisierte Zweige links/rechts -->
    <path d="M80 420 C110 380 150 360 200 350" stroke="#0B3D2E" stroke-width="6" stroke-linecap="round" stroke-linejoin="round" fill="none" opacity="0.95"/>
    <path d="M420 420 C390 380 350 360 300 350" stroke="#0B3D2E" stroke-width="6" stroke-linecap="round" stroke-linejoin="round" fill="none" opacity="0.95"/>

    <!-- feine goldene Rahmen-Elemente -->
    <path d="M60 80 C120 40 380 40 440 80" stroke="#D4AF37" stroke-width="1.2" fill="none" opacity="0.6" stroke-linecap="round"/>
    <path d="M60 620 C120 660 380 660 440 620" stroke="#D4AF37" stroke-width="1.2" fill="none" opacity="0.5" stroke-linecap="round"/>

    <!-- dezente Schneeflocken-Sprenkler -->
    <circle cx="91" cy="91" r="1.5" fill="#FFF8F0" opacity="0.9"/>
    <circle cx="140" cy="200" r="1.25" fill="#FFF8F0" opacity="0.85"/>
    <circle cx="320" cy="110" r="1.25" fill="#FFF8F0" opacity="0.85"/>
    <circle cx="410" cy="220" r="1.5" fill="#FFF8F0" opacity="0.9"/>
  </g>

  <!-- Text Layer -->
  <g id="Text" filter="url(#softShadow)">
    <!-- Band-Hintergrund -->
    <rect x="40" y="420" width="420" height="110" rx="8" ry="8" fill="#0B3D2E" opacity="0.98"/>
    <!-- leichter Schatten (als separate, offset rectangle) -->
    <rect x="44" y="424" width="420" height="110" rx="8" ry="8" fill="#000000" opacity="0.06"/>

    <!-- Hauptschriftzug (Script) -->
    <text x="250" y="475" text-anchor="middle" class="script"
          font-size="28" fill="#FFF8F0" font-weight="600">
      Frohe Weihnachten und besinnliche Feiertage
    </text>

    <!-- Unterzeile -->
    <text x="250" y="505" text-anchor="middle" class="sans"
          font-size="14" fill="#FFF8F0" opacity="0.95">
      Von Herzen
    </text>

    <!-- Signatur-Linie -->
    <line x1="200" y1="520" x2="300" y2="520" stroke="#FFF8F0" stroke-width="0.8" opacity="0.6"/>
  </g>
</svg>
